<svg width="291" height="31" viewBox="0 0 291 31" fill="none" xmlns="http://www.w3.org/2000/svg">
<path d="M17.5298 0.0197754H31.0925V5.84657H16.6493C14.0423 5.84657 12.0656 6.31108 10.719 7.24008C8.88522 8.17056 7.48189 9.96627 6.50902 12.6273C6.31233 13.3906 6.20424 14.1728 6.18674 14.9593C6.18674 17.2188 7.06052 19.3435 8.80806 21.3334C9.95189 22.4016 11.0261 23.1087 12.0307 23.4544C13.1322 23.9365 14.6445 24.1776 16.5676 24.1776H31.0925V30.0022H17.2484C13.7095 30.0022 11.0882 29.586 9.38447 28.7538C5.57624 27.1419 2.84827 24.5043 1.2006 20.8411C0.396337 18.9924 -0.0121023 17.0049 1.79028e-05 14.9989C1.79028e-05 10.5356 1.82623 6.72576 5.47866 3.56948C7.86922 1.81258 10.0313 0.775142 11.965 0.45717C12.9545 0.167039 14.8094 0.0212406 17.5298 0.0197754ZM14.9085 12.1283H31.0925V17.8914H14.9085V12.1283Z" fill="white"/>
<path d="M51.3526 13.9043V18.243H35.6475V13.9043H51.3526Z" fill="white"/>
<path d="M52.6712 0.041748H69.9014C76.1442 0.041748 80.4766 2.6837 82.899 7.96761C83.4934 9.48216 83.792 11.0906 83.7796 12.7108C83.7796 16.2276 82.3619 19.3047 79.5265 21.9422C77.779 23.4398 75.6373 24.4523 73.1015 24.9798C72.1197 25.1138 71.1289 25.1762 70.1375 25.1667L58.8806 25.292V29.9934H52.6281V19.3684H69.6495C71.8707 19.3684 73.4964 18.9662 74.5268 18.1617C75.8446 17.3442 76.7902 16.0253 77.3636 14.2054C77.4631 13.7883 77.5201 13.3628 77.5339 12.935V12.3086C77.5339 10.7407 76.8394 9.21532 75.4504 7.73242C74.004 6.5001 72.4002 5.8832 70.639 5.88174H52.6712V0.041748Z" fill="white"/>
<path d="M86.9974 0.041748H93.2277V14.2098C93.2277 18.1764 94.7958 21.0609 97.9319 22.8632C99.3075 23.7424 101.134 24.182 103.411 24.182H118.147V30.0066H103.622C99.6881 30.0066 96.5443 29.2087 94.1901 27.613C93.5348 27.2907 92.5494 26.5118 91.2345 25.2766C89.5313 23.4186 88.3781 21.5467 87.7759 19.6607C87.2618 18.2321 87.0034 16.1858 87.0026 13.5218L86.9974 0.041748Z" fill="white"/>
<path d="M138.215 0H152.512V30H146.31V5.84658L140.767 5.86637H139.435C136.341 5.86637 134.622 5.99165 134.279 6.24222C132.404 6.74306 130.755 7.83328 129.59 9.34133C128.214 11.2463 127.527 13.1394 127.527 15.0209C127.527 17.3507 128.458 19.4937 130.32 21.4499C131.568 22.6017 132.642 23.2948 133.544 23.5292C134.451 23.9688 136.005 24.1886 138.205 24.1886H142.517V29.9934H137.351C133.513 29.9934 130.269 29.0153 127.62 27.0592C125.702 25.5938 124.42 24.2626 123.775 23.0654C122.17 20.5978 121.368 18.0738 121.37 15.4934V14.6142C121.37 11.0096 122.766 7.70167 125.559 4.69045C127.248 3.10499 128.629 2.10345 129.704 1.68584C130.722 1.17663 131.796 0.778562 132.906 0.498938C134.122 0.166313 135.892 0 138.215 0Z" fill="white"/>
<path d="M168.265 30V25.0897C165.77 24.4435 163.438 23.3104 161.411 21.7598C159.707 20.2769 158.598 19.0424 158.082 18.0562C157.365 16.9417 156.809 15.7379 156.427 14.478C155.973 13.0918 155.746 11.2052 155.746 8.81824V0.041748H161.976V9.09074C161.976 11.7283 162.506 13.7607 163.565 15.1879C163.778 15.6451 164.465 16.3733 165.626 17.3727C167.229 18.6503 169.242 19.3488 171.319 19.3488C173.395 19.3488 175.408 18.6503 177.012 17.3727C178.172 16.3719 178.86 15.6437 179.075 15.1879C180.134 13.7592 180.663 11.7268 180.663 9.09074V0.041748H186.893V8.82041C186.893 11.2074 186.666 13.094 186.213 14.4802C185.845 15.7449 185.287 16.9505 184.558 18.0585C184.043 19.0432 182.941 20.2777 181.251 21.762C179.215 23.3088 176.877 24.4407 174.376 25.0897V30H168.265Z" fill="white"/>
<path d="M207.639 0.0197754H221.195V5.84657H206.754C204.148 5.84657 202.173 6.31108 200.825 7.24008C198.992 8.17056 197.588 9.96627 196.616 12.6273C196.419 13.3906 196.311 14.1728 196.293 14.9593C196.293 17.2188 197.167 19.3435 198.913 21.3334C200.058 22.4016 201.133 23.1087 202.135 23.4544C203.239 23.9395 204.751 24.1827 206.674 24.1842H221.199V30.0088H207.355C203.82 30.0088 201.198 29.5926 199.493 28.7603C195.684 27.1485 192.956 24.5109 191.309 20.8477C190.503 18.9981 190.094 17.0088 190.107 15.0011C190.107 10.5378 191.932 6.72796 195.583 3.57168C197.978 1.81332 200.143 0.775142 202.076 0.45717C203.064 0.167039 204.919 0.0212406 207.639 0.0197754ZM205.02 12.1283H221.195V17.8914H205.02V12.1283Z" fill="white"/>
<path d="M224.481 0.0197754H244.373C247.89 0.0197754 250.64 1.0389 252.623 3.07714C253.392 3.7285 254.019 4.52023 254.47 5.40698C255.207 6.76418 255.605 8.26988 255.63 9.80293V10.6557C255.63 12.8537 254.647 14.9967 252.68 17.0848C251.42 18.257 250.274 19.0058 249.243 19.3311C251.849 22.0243 253.152 25.5821 253.152 30.0043H246.902V29.5472C246.902 26.2737 245.534 23.6728 242.798 21.7444C241.237 20.6763 239.194 20.1421 236.671 20.1421H224.481V14.3548H244.759C246.979 14.3548 248.483 13.294 249.271 11.1723C249.357 10.7327 249.414 10.3809 249.444 10.0908C249.444 8.91126 248.936 7.84306 247.918 6.88621C247.134 6.25184 246.147 5.89935 245.124 5.88834C245.124 5.83339 244.825 5.80481 244.217 5.80481H224.472L224.481 0.0197754Z" fill="white"/>
<path d="M268.691 0.0417523H289.548V6.19605H268.496C266.851 6.19605 265.843 6.97926 265.469 8.54566V8.98524C265.469 9.91424 266.006 10.6909 267.08 11.3151C267.408 11.4399 267.758 11.5033 268.111 11.5019H278.698C281.421 11.5019 283.268 11.7722 284.24 12.313C286.647 13.3548 288.311 14.9432 289.233 17.0782C289.731 18.3045 289.994 19.6089 290.007 20.9268C290.007 23.9219 288.56 26.4459 285.667 28.4987C284.749 29.0504 283.75 29.4647 282.704 29.7274C281.873 29.9077 280.491 29.9978 278.557 29.9978H258.88L258.858 23.8435H279.996C281.772 23.8435 282.907 22.9972 283.4 21.3048L283.444 20.7444C283.444 19.5502 282.838 18.6343 281.628 17.9969C281.112 17.758 280.545 17.6441 279.973 17.665H268.094C264.986 17.665 262.395 16.3462 260.319 13.7087C259.452 12.3813 258.981 10.8479 258.957 9.27757V8.46432C258.957 5.3872 260.505 2.95332 263.599 1.16271C264.874 0.413941 266.572 0.040287 268.691 0.0417523Z" fill="white"/>
</svg>
